<svg version="1.1" xmlns="http://www.w3.org/2000/svg" viewBox="0 0 329.5859737791826 214.1188508093357" width="659.1719475583652" height="428.2377016186714">
  <!-- svg-source:excalidraw -->
  
  <defs>
    <style class="style-fonts">
      @font-face {
        font-family: "Virgil";
        src: url("https://excalidraw.com/Virgil.woff2");
      }
      @font-face {
        font-family: "Cascadia";
        src: url("https://excalidraw.com/Cascadia.woff2");
      }
    </style>
  </defs>
  <rect x="0" y="0" width="329.5859737791826" height="214.1188508093357" fill="#ffffff"></rect><g stroke-linecap="round"><g transform="translate(134.90917968749977 154.7472906398259) rotate(0 91.95721031844892 -71.77804924783521)"><path d="M0.46 1.19 C28.47 -3.17, 139.38 -2.76, 169.02 -27.08 C198.66 -51.41, 176.84 -125.26, 178.3 -144.75 M-0.76 0.77 C27.09 -3.87, 138.78 -4.92, 168.51 -28.94 C198.23 -52.97, 176.05 -123.84, 177.59 -143.37" stroke="#000000" stroke-width="1" fill="none"></path></g><g transform="translate(134.90917968749977 154.7472906398259) rotate(0 91.95721031844892 -71.77804924783521)"><path d="M192.68 -114.99 C186.8 -126.3, 181.22 -137.37, 178.97 -144.26 M190.97 -117.02 C186.14 -125.2, 182.25 -135.54, 177.34 -142.44" stroke="#000000" stroke-width="1" fill="none"></path></g><g transform="translate(134.90917968749977 154.7472906398259) rotate(0 91.95721031844892 -71.77804924783521)"><path d="M172.27 -112.88 C174.09 -125.06, 176.19 -136.93, 178.97 -144.26 M170.56 -114.91 C172.78 -123.97, 175.93 -135.03, 177.34 -142.44" stroke="#000000" stroke-width="1" fill="none"></path></g></g><mask></mask><g transform="translate(10 98.1188508093357) rotate(0 59.5 53)"><text x="119" y="24.333333333333336" font-family="Virgil, Segoe UI Emoji" font-size="28px" fill="#000000" text-anchor="end" style="white-space: pre;" direction="ltr">Adicione </text><text x="119" y="59.66666666666667" font-family="Virgil, Segoe UI Emoji" font-size="28px" fill="#000000" text-anchor="end" style="white-space: pre;" direction="ltr">um </text><text x="119" y="95" font-family="Virgil, Segoe UI Emoji" font-size="28px" fill="#000000" text-anchor="end" style="white-space: pre;" direction="ltr">Sticker</text></g></svg>